<mxfile host="app.diagrams.net" modified="2022-06-03T14:45:09.969Z" agent="5.0 (Windows NT 10.0; Win64; x64) AppleWebKit/537.36 (KHTML, like Gecko) Chrome/102.0.5005.63 Safari/537.36 Edg/102.0.1245.30" etag="yAREPnBJOO5sHf-AxVmc" version="19.0.0" type="github">
  <diagram id="C5RBs43oDa-KdzZeNtuy" name="Page-1">
    <mxGraphModel dx="346" dy="190" grid="1" gridSize="10" guides="1" tooltips="1" connect="1" arrows="1" fold="1" page="1" pageScale="1" pageWidth="827" pageHeight="1169" background="#ffffff" math="0" shadow="0">
      <root>
        <mxCell id="WIyWlLk6GJQsqaUBKTNV-0" />
        <mxCell id="WIyWlLk6GJQsqaUBKTNV-1" parent="WIyWlLk6GJQsqaUBKTNV-0" />
        <mxCell id="cN6UIeegfLtIzl7-wpxI-7" value="Usuário" style="swimlane;fontStyle=2;align=center;verticalAlign=top;childLayout=stackLayout;horizontal=1;startSize=26;horizontalStack=0;resizeParent=1;resizeLast=0;collapsible=1;marginBottom=0;rounded=0;shadow=0;strokeWidth=1;" parent="WIyWlLk6GJQsqaUBKTNV-1" vertex="1">
          <mxGeometry x="120" y="200" width="160" height="140" as="geometry">
            <mxRectangle x="230" y="140" width="160" height="26" as="alternateBounds" />
          </mxGeometry>
        </mxCell>
        <mxCell id="cN6UIeegfLtIzl7-wpxI-8" value="+ nome: String" style="text;align=left;verticalAlign=top;spacingLeft=4;spacingRight=4;overflow=hidden;rotatable=0;points=[[0,0.5],[1,0.5]];portConstraint=eastwest;" parent="cN6UIeegfLtIzl7-wpxI-7" vertex="1">
          <mxGeometry y="26" width="160" height="26" as="geometry" />
        </mxCell>
        <mxCell id="cN6UIeegfLtIzl7-wpxI-9" value="+ CPF: Int" style="text;align=left;verticalAlign=top;spacingLeft=4;spacingRight=4;overflow=hidden;rotatable=0;points=[[0,0.5],[1,0.5]];portConstraint=eastwest;rounded=0;shadow=0;html=0;" parent="cN6UIeegfLtIzl7-wpxI-7" vertex="1">
          <mxGeometry y="52" width="160" height="26" as="geometry" />
        </mxCell>
        <mxCell id="x6thYNYKPxAnFUKDe-XJ-1" value="- endereço de e-mail: String" style="text;align=left;verticalAlign=top;spacingLeft=4;spacingRight=4;overflow=hidden;rotatable=0;points=[[0,0.5],[1,0.5]];portConstraint=eastwest;" vertex="1" parent="cN6UIeegfLtIzl7-wpxI-7">
          <mxGeometry y="78" width="160" height="26" as="geometry" />
        </mxCell>
        <mxCell id="x6thYNYKPxAnFUKDe-XJ-0" value="- localização: String" style="text;align=left;verticalAlign=top;spacingLeft=4;spacingRight=4;overflow=hidden;rotatable=0;points=[[0,0.5],[1,0.5]];portConstraint=eastwest;rounded=0;shadow=0;html=0;" vertex="1" parent="cN6UIeegfLtIzl7-wpxI-7">
          <mxGeometry y="104" width="160" height="26" as="geometry" />
        </mxCell>
        <mxCell id="cN6UIeegfLtIzl7-wpxI-66" style="edgeStyle=orthogonalEdgeStyle;rounded=0;orthogonalLoop=1;jettySize=auto;html=1;entryX=0;entryY=0.5;entryDx=0;entryDy=0;startArrow=none;startFill=0;endArrow=none;endFill=0;" parent="WIyWlLk6GJQsqaUBKTNV-1" source="cN6UIeegfLtIzl7-wpxI-14" target="cN6UIeegfLtIzl7-wpxI-47" edge="1">
          <mxGeometry relative="1" as="geometry">
            <Array as="points">
              <mxPoint x="110" y="679" />
            </Array>
          </mxGeometry>
        </mxCell>
        <mxCell id="cN6UIeegfLtIzl7-wpxI-68" value="1" style="edgeLabel;html=1;align=center;verticalAlign=middle;resizable=0;points=[];" parent="cN6UIeegfLtIzl7-wpxI-66" vertex="1" connectable="0">
          <mxGeometry x="-0.861" y="1" relative="1" as="geometry">
            <mxPoint x="-11" y="-1" as="offset" />
          </mxGeometry>
        </mxCell>
        <mxCell id="cN6UIeegfLtIzl7-wpxI-69" value="*" style="edgeLabel;html=1;align=center;verticalAlign=middle;resizable=0;points=[];" parent="cN6UIeegfLtIzl7-wpxI-66" vertex="1" connectable="0">
          <mxGeometry x="0.8938" y="2" relative="1" as="geometry">
            <mxPoint x="-28" y="14" as="offset" />
          </mxGeometry>
        </mxCell>
        <mxCell id="cN6UIeegfLtIzl7-wpxI-70" value="solicita" style="edgeLabel;html=1;align=center;verticalAlign=middle;resizable=0;points=[];" parent="cN6UIeegfLtIzl7-wpxI-66" vertex="1" connectable="0">
          <mxGeometry x="-0.9013" y="-1" relative="1" as="geometry">
            <mxPoint x="9" y="149" as="offset" />
          </mxGeometry>
        </mxCell>
        <mxCell id="cN6UIeegfLtIzl7-wpxI-14" value="Cliente" style="swimlane;fontStyle=2;align=center;verticalAlign=top;childLayout=stackLayout;horizontal=1;startSize=26;horizontalStack=0;resizeParent=1;resizeLast=0;collapsible=1;marginBottom=0;rounded=0;shadow=0;strokeWidth=1;" parent="WIyWlLk6GJQsqaUBKTNV-1" vertex="1">
          <mxGeometry x="20" y="463" width="190" height="57" as="geometry">
            <mxRectangle x="230" y="140" width="160" height="26" as="alternateBounds" />
          </mxGeometry>
        </mxCell>
        <mxCell id="cN6UIeegfLtIzl7-wpxI-16" value="+ forma de pagamento: Int" style="text;align=left;verticalAlign=top;spacingLeft=4;spacingRight=4;overflow=hidden;rotatable=0;points=[[0,0.5],[1,0.5]];portConstraint=eastwest;rounded=0;shadow=0;html=0;" parent="cN6UIeegfLtIzl7-wpxI-14" vertex="1">
          <mxGeometry y="26" width="190" height="26" as="geometry" />
        </mxCell>
        <mxCell id="cN6UIeegfLtIzl7-wpxI-67" style="edgeStyle=orthogonalEdgeStyle;rounded=0;orthogonalLoop=1;jettySize=auto;html=1;startArrow=none;startFill=0;endArrow=none;endFill=0;" parent="WIyWlLk6GJQsqaUBKTNV-1" source="cN6UIeegfLtIzl7-wpxI-20" target="cN6UIeegfLtIzl7-wpxI-46" edge="1">
          <mxGeometry relative="1" as="geometry" />
        </mxCell>
        <mxCell id="cN6UIeegfLtIzl7-wpxI-71" value="*" style="edgeLabel;html=1;align=center;verticalAlign=middle;resizable=0;points=[];" parent="cN6UIeegfLtIzl7-wpxI-67" vertex="1" connectable="0">
          <mxGeometry x="0.7836" y="3" relative="1" as="geometry">
            <mxPoint x="7" y="11" as="offset" />
          </mxGeometry>
        </mxCell>
        <mxCell id="cN6UIeegfLtIzl7-wpxI-72" value="*" style="edgeLabel;html=1;align=center;verticalAlign=middle;resizable=0;points=[];" parent="cN6UIeegfLtIzl7-wpxI-67" vertex="1" connectable="0">
          <mxGeometry x="-0.8097" relative="1" as="geometry">
            <mxPoint x="-10" as="offset" />
          </mxGeometry>
        </mxCell>
        <mxCell id="cN6UIeegfLtIzl7-wpxI-73" value="aceita" style="edgeLabel;html=1;align=center;verticalAlign=middle;resizable=0;points=[];" parent="cN6UIeegfLtIzl7-wpxI-67" vertex="1" connectable="0">
          <mxGeometry x="-0.6272" y="2" relative="1" as="geometry">
            <mxPoint x="-69" y="18" as="offset" />
          </mxGeometry>
        </mxCell>
        <mxCell id="cN6UIeegfLtIzl7-wpxI-20" value="Entregador" style="swimlane;fontStyle=2;align=center;verticalAlign=top;childLayout=stackLayout;horizontal=1;startSize=26;horizontalStack=0;resizeParent=1;resizeLast=0;collapsible=1;marginBottom=0;rounded=0;shadow=0;strokeWidth=1;" parent="WIyWlLk6GJQsqaUBKTNV-1" vertex="1">
          <mxGeometry x="310" y="480" width="160" height="52" as="geometry">
            <mxRectangle x="230" y="140" width="160" height="26" as="alternateBounds" />
          </mxGeometry>
        </mxCell>
        <mxCell id="cN6UIeegfLtIzl7-wpxI-21" value="+ disponibilidade: Booleano" style="text;align=left;verticalAlign=top;spacingLeft=4;spacingRight=4;overflow=hidden;rotatable=0;points=[[0,0.5],[1,0.5]];portConstraint=eastwest;" parent="cN6UIeegfLtIzl7-wpxI-20" vertex="1">
          <mxGeometry y="26" width="160" height="26" as="geometry" />
        </mxCell>
        <mxCell id="cN6UIeegfLtIzl7-wpxI-31" value="" style="endArrow=block;endSize=16;endFill=0;html=1;rounded=0;exitX=0.5;exitY=0;exitDx=0;exitDy=0;entryX=0.5;entryY=1;entryDx=0;entryDy=0;" parent="WIyWlLk6GJQsqaUBKTNV-1" source="cN6UIeegfLtIzl7-wpxI-20" target="cN6UIeegfLtIzl7-wpxI-7" edge="1">
          <mxGeometry width="160" relative="1" as="geometry">
            <mxPoint x="430" y="390" as="sourcePoint" />
            <mxPoint x="590" y="390" as="targetPoint" />
            <Array as="points">
              <mxPoint x="390" y="420" />
              <mxPoint x="200" y="420" />
            </Array>
          </mxGeometry>
        </mxCell>
        <mxCell id="cN6UIeegfLtIzl7-wpxI-33" value="" style="endArrow=block;endSize=16;endFill=0;html=1;rounded=0;entryX=0.5;entryY=1;entryDx=0;entryDy=0;exitX=0.5;exitY=0;exitDx=0;exitDy=0;" parent="WIyWlLk6GJQsqaUBKTNV-1" source="cN6UIeegfLtIzl7-wpxI-14" target="cN6UIeegfLtIzl7-wpxI-7" edge="1">
          <mxGeometry width="160" relative="1" as="geometry">
            <mxPoint x="440" y="400" as="sourcePoint" />
            <mxPoint x="600" y="400" as="targetPoint" />
            <Array as="points">
              <mxPoint x="115" y="420" />
              <mxPoint x="200" y="420" />
            </Array>
          </mxGeometry>
        </mxCell>
        <mxCell id="cN6UIeegfLtIzl7-wpxI-34" value="Produto" style="swimlane;fontStyle=2;align=center;verticalAlign=top;childLayout=stackLayout;horizontal=1;startSize=26;horizontalStack=0;resizeParent=1;resizeLast=0;collapsible=1;marginBottom=0;rounded=0;shadow=0;strokeWidth=1;" parent="WIyWlLk6GJQsqaUBKTNV-1" vertex="1">
          <mxGeometry x="600" y="512" width="160" height="52" as="geometry">
            <mxRectangle x="230" y="140" width="160" height="26" as="alternateBounds" />
          </mxGeometry>
        </mxCell>
        <mxCell id="cN6UIeegfLtIzl7-wpxI-35" value="- ID" style="text;align=left;verticalAlign=top;spacingLeft=4;spacingRight=4;overflow=hidden;rotatable=0;points=[[0,0.5],[1,0.5]];portConstraint=eastwest;" parent="cN6UIeegfLtIzl7-wpxI-34" vertex="1">
          <mxGeometry y="26" width="160" height="26" as="geometry" />
        </mxCell>
        <mxCell id="cN6UIeegfLtIzl7-wpxI-43" style="edgeStyle=orthogonalEdgeStyle;rounded=0;orthogonalLoop=1;jettySize=auto;html=1;exitX=0.5;exitY=1;exitDx=0;exitDy=0;entryX=0.5;entryY=0;entryDx=0;entryDy=0;startArrow=none;startFill=0;endArrow=none;endFill=0;" parent="WIyWlLk6GJQsqaUBKTNV-1" source="cN6UIeegfLtIzl7-wpxI-38" target="cN6UIeegfLtIzl7-wpxI-34" edge="1">
          <mxGeometry relative="1" as="geometry" />
        </mxCell>
        <mxCell id="cN6UIeegfLtIzl7-wpxI-91" value="estaEm" style="edgeLabel;html=1;align=center;verticalAlign=middle;resizable=0;points=[];" parent="cN6UIeegfLtIzl7-wpxI-43" vertex="1" connectable="0">
          <mxGeometry x="-0.162" y="-1" relative="1" as="geometry">
            <mxPoint x="26" y="4" as="offset" />
          </mxGeometry>
        </mxCell>
        <mxCell id="cN6UIeegfLtIzl7-wpxI-100" value="*" style="edgeLabel;html=1;align=center;verticalAlign=middle;resizable=0;points=[];" parent="cN6UIeegfLtIzl7-wpxI-43" vertex="1" connectable="0">
          <mxGeometry x="-0.7621" y="2" relative="1" as="geometry">
            <mxPoint x="1" as="offset" />
          </mxGeometry>
        </mxCell>
        <mxCell id="cN6UIeegfLtIzl7-wpxI-101" value="*" style="edgeLabel;html=1;align=center;verticalAlign=middle;resizable=0;points=[];" parent="cN6UIeegfLtIzl7-wpxI-43" vertex="1" connectable="0">
          <mxGeometry x="0.7139" y="1" relative="1" as="geometry">
            <mxPoint x="3" as="offset" />
          </mxGeometry>
        </mxCell>
        <mxCell id="cN6UIeegfLtIzl7-wpxI-38" value="Slot" style="swimlane;fontStyle=2;align=center;verticalAlign=top;childLayout=stackLayout;horizontal=1;startSize=26;horizontalStack=0;resizeParent=1;resizeLast=0;collapsible=1;marginBottom=0;rounded=0;shadow=0;strokeWidth=1;" parent="WIyWlLk6GJQsqaUBKTNV-1" vertex="1">
          <mxGeometry x="600" y="340" width="160" height="110" as="geometry">
            <mxRectangle x="230" y="140" width="160" height="26" as="alternateBounds" />
          </mxGeometry>
        </mxCell>
        <mxCell id="cN6UIeegfLtIzl7-wpxI-39" value="+ link: String" style="text;align=left;verticalAlign=top;spacingLeft=4;spacingRight=4;overflow=hidden;rotatable=0;points=[[0,0.5],[1,0.5]];portConstraint=eastwest;" parent="cN6UIeegfLtIzl7-wpxI-38" vertex="1">
          <mxGeometry y="26" width="160" height="26" as="geometry" />
        </mxCell>
        <mxCell id="cN6UIeegfLtIzl7-wpxI-40" value="+  disponibilidade: Boolean" style="text;align=left;verticalAlign=top;spacingLeft=4;spacingRight=4;overflow=hidden;rotatable=0;points=[[0,0.5],[1,0.5]];portConstraint=eastwest;rounded=0;shadow=0;html=0;" parent="cN6UIeegfLtIzl7-wpxI-38" vertex="1">
          <mxGeometry y="52" width="160" height="26" as="geometry" />
        </mxCell>
        <mxCell id="cN6UIeegfLtIzl7-wpxI-41" value="- IDatual: Int " style="text;align=left;verticalAlign=top;spacingLeft=4;spacingRight=4;overflow=hidden;rotatable=0;points=[[0,0.5],[1,0.5]];portConstraint=eastwest;rounded=0;shadow=0;html=0;" parent="cN6UIeegfLtIzl7-wpxI-38" vertex="1">
          <mxGeometry y="78" width="160" height="26" as="geometry" />
        </mxCell>
        <mxCell id="cN6UIeegfLtIzl7-wpxI-59" style="edgeStyle=orthogonalEdgeStyle;rounded=0;orthogonalLoop=1;jettySize=auto;html=1;entryX=0.5;entryY=0;entryDx=0;entryDy=0;startArrow=none;startFill=0;endArrow=none;endFill=0;" parent="WIyWlLk6GJQsqaUBKTNV-1" source="cN6UIeegfLtIzl7-wpxI-42" target="cN6UIeegfLtIzl7-wpxI-7" edge="1">
          <mxGeometry relative="1" as="geometry" />
        </mxCell>
        <mxCell id="cN6UIeegfLtIzl7-wpxI-75" value="*" style="edgeLabel;html=1;align=center;verticalAlign=middle;resizable=0;points=[];" parent="cN6UIeegfLtIzl7-wpxI-59" vertex="1" connectable="0">
          <mxGeometry x="0.8927" y="1" relative="1" as="geometry">
            <mxPoint x="-11" as="offset" />
          </mxGeometry>
        </mxCell>
        <mxCell id="cN6UIeegfLtIzl7-wpxI-76" value="1" style="edgeLabel;html=1;align=center;verticalAlign=middle;resizable=0;points=[];" parent="cN6UIeegfLtIzl7-wpxI-59" vertex="1" connectable="0">
          <mxGeometry x="-0.8049" y="-1" relative="1" as="geometry">
            <mxPoint x="10" y="-9" as="offset" />
          </mxGeometry>
        </mxCell>
        <mxCell id="cN6UIeegfLtIzl7-wpxI-60" style="edgeStyle=orthogonalEdgeStyle;rounded=0;orthogonalLoop=1;jettySize=auto;html=1;entryX=0.75;entryY=0;entryDx=0;entryDy=0;startArrow=none;startFill=0;endArrow=none;endFill=0;" parent="WIyWlLk6GJQsqaUBKTNV-1" source="cN6UIeegfLtIzl7-wpxI-42" target="cN6UIeegfLtIzl7-wpxI-38" edge="1">
          <mxGeometry relative="1" as="geometry" />
        </mxCell>
        <mxCell id="cN6UIeegfLtIzl7-wpxI-93" value="1" style="edgeLabel;html=1;align=center;verticalAlign=middle;resizable=0;points=[];" parent="cN6UIeegfLtIzl7-wpxI-60" vertex="1" connectable="0">
          <mxGeometry x="-0.8934" y="-3" relative="1" as="geometry">
            <mxPoint y="-13" as="offset" />
          </mxGeometry>
        </mxCell>
        <mxCell id="cN6UIeegfLtIzl7-wpxI-94" value="*" style="edgeLabel;html=1;align=center;verticalAlign=middle;resizable=0;points=[];" parent="cN6UIeegfLtIzl7-wpxI-60" vertex="1" connectable="0">
          <mxGeometry x="0.9075" relative="1" as="geometry">
            <mxPoint x="10" as="offset" />
          </mxGeometry>
        </mxCell>
        <mxCell id="cN6UIeegfLtIzl7-wpxI-42" value="App" style="ellipse;shape=umlControl;whiteSpace=wrap;html=1;" parent="WIyWlLk6GJQsqaUBKTNV-1" vertex="1">
          <mxGeometry x="365" y="110" width="105" height="120" as="geometry" />
        </mxCell>
        <mxCell id="cN6UIeegfLtIzl7-wpxI-46" value="Entrega" style="swimlane;fontStyle=2;align=center;verticalAlign=top;childLayout=stackLayout;horizontal=1;startSize=26;horizontalStack=0;resizeParent=1;resizeLast=0;collapsible=1;marginBottom=0;rounded=0;shadow=0;strokeWidth=1;" parent="WIyWlLk6GJQsqaUBKTNV-1" vertex="1">
          <mxGeometry x="220" y="620" width="160" height="110" as="geometry">
            <mxRectangle x="230" y="140" width="160" height="26" as="alternateBounds" />
          </mxGeometry>
        </mxCell>
        <mxCell id="cN6UIeegfLtIzl7-wpxI-47" value="+ statusFinal: Booleano" style="text;align=left;verticalAlign=top;spacingLeft=4;spacingRight=4;overflow=hidden;rotatable=0;points=[[0,0.5],[1,0.5]];portConstraint=eastwest;" parent="cN6UIeegfLtIzl7-wpxI-46" vertex="1">
          <mxGeometry y="26" width="160" height="26" as="geometry" />
        </mxCell>
        <mxCell id="cN6UIeegfLtIzl7-wpxI-56" value="+ valor: Float" style="text;align=left;verticalAlign=top;spacingLeft=4;spacingRight=4;overflow=hidden;rotatable=0;points=[[0,0.5],[1,0.5]];portConstraint=eastwest;" parent="cN6UIeegfLtIzl7-wpxI-46" vertex="1">
          <mxGeometry y="52" width="160" height="26" as="geometry" />
        </mxCell>
        <mxCell id="9I4tvQFflYeEZZeIHHPp-14" value="+ destino: String" style="text;align=left;verticalAlign=top;spacingLeft=4;spacingRight=4;overflow=hidden;rotatable=0;points=[[0,0.5],[1,0.5]];portConstraint=eastwest;" parent="cN6UIeegfLtIzl7-wpxI-46" vertex="1">
          <mxGeometry y="78" width="160" height="28" as="geometry" />
        </mxCell>
        <mxCell id="cN6UIeegfLtIzl7-wpxI-57" style="edgeStyle=orthogonalEdgeStyle;rounded=0;orthogonalLoop=1;jettySize=auto;html=1;exitX=1;exitY=0.5;exitDx=0;exitDy=0;startArrow=none;startFill=0;endArrow=none;endFill=0;" parent="WIyWlLk6GJQsqaUBKTNV-1" source="cN6UIeegfLtIzl7-wpxI-20" edge="1">
          <mxGeometry relative="1" as="geometry">
            <mxPoint x="640" y="340" as="targetPoint" />
            <Array as="points">
              <mxPoint x="560" y="506" />
              <mxPoint x="560" y="270" />
              <mxPoint x="640" y="270" />
            </Array>
          </mxGeometry>
        </mxCell>
        <mxCell id="cN6UIeegfLtIzl7-wpxI-61" value="1" style="edgeLabel;html=1;align=center;verticalAlign=middle;resizable=0;points=[];" parent="cN6UIeegfLtIzl7-wpxI-57" vertex="1" connectable="0">
          <mxGeometry x="-0.9302" relative="1" as="geometry">
            <mxPoint y="-9" as="offset" />
          </mxGeometry>
        </mxCell>
        <mxCell id="cN6UIeegfLtIzl7-wpxI-62" value="*" style="edgeLabel;html=1;align=center;verticalAlign=middle;resizable=0;points=[];" parent="cN6UIeegfLtIzl7-wpxI-57" vertex="1" connectable="0">
          <mxGeometry x="0.9481" y="2" relative="1" as="geometry">
            <mxPoint x="8" as="offset" />
          </mxGeometry>
        </mxCell>
        <mxCell id="cN6UIeegfLtIzl7-wpxI-74" value="cadastro" style="text;html=1;align=center;verticalAlign=middle;resizable=0;points=[];autosize=1;strokeColor=none;fillColor=none;" parent="WIyWlLk6GJQsqaUBKTNV-1" vertex="1">
          <mxGeometry x="200" y="150" width="60" height="20" as="geometry" />
        </mxCell>
        <mxCell id="cN6UIeegfLtIzl7-wpxI-77" value="Rotas" style="swimlane;fontStyle=2;align=center;verticalAlign=top;childLayout=stackLayout;horizontal=1;startSize=26;horizontalStack=0;resizeParent=1;resizeLast=0;collapsible=1;marginBottom=0;rounded=0;shadow=0;strokeWidth=1;" parent="WIyWlLk6GJQsqaUBKTNV-1" vertex="1">
          <mxGeometry x="365" y="280" width="160" height="80" as="geometry">
            <mxRectangle x="230" y="140" width="160" height="26" as="alternateBounds" />
          </mxGeometry>
        </mxCell>
        <mxCell id="cN6UIeegfLtIzl7-wpxI-78" value="+ nome: String" style="text;align=left;verticalAlign=top;spacingLeft=4;spacingRight=4;overflow=hidden;rotatable=0;points=[[0,0.5],[1,0.5]];portConstraint=eastwest;" parent="cN6UIeegfLtIzl7-wpxI-77" vertex="1">
          <mxGeometry y="26" width="160" height="26" as="geometry" />
        </mxCell>
        <mxCell id="cN6UIeegfLtIzl7-wpxI-79" value="+ vetorDePontos: String[]" style="text;align=left;verticalAlign=top;spacingLeft=4;spacingRight=4;overflow=hidden;rotatable=0;points=[[0,0.5],[1,0.5]];portConstraint=eastwest;rounded=0;shadow=0;html=0;" parent="cN6UIeegfLtIzl7-wpxI-77" vertex="1">
          <mxGeometry y="52" width="160" height="26" as="geometry" />
        </mxCell>
        <mxCell id="cN6UIeegfLtIzl7-wpxI-81" value="" style="endArrow=diamondThin;endFill=1;endSize=24;html=1;rounded=0;entryX=1;entryY=0.5;entryDx=0;entryDy=0;exitX=0.002;exitY=0.829;exitDx=0;exitDy=0;exitPerimeter=0;" parent="WIyWlLk6GJQsqaUBKTNV-1" source="cN6UIeegfLtIzl7-wpxI-78" target="cN6UIeegfLtIzl7-wpxI-9" edge="1">
          <mxGeometry width="160" relative="1" as="geometry">
            <mxPoint x="350" y="340" as="sourcePoint" />
            <mxPoint x="510" y="340" as="targetPoint" />
          </mxGeometry>
        </mxCell>
        <mxCell id="cN6UIeegfLtIzl7-wpxI-82" value="1" style="edgeLabel;html=1;align=center;verticalAlign=middle;resizable=0;points=[];" parent="cN6UIeegfLtIzl7-wpxI-81" vertex="1" connectable="0">
          <mxGeometry x="0.2233" relative="1" as="geometry">
            <mxPoint x="-3" y="-11" as="offset" />
          </mxGeometry>
        </mxCell>
        <mxCell id="cN6UIeegfLtIzl7-wpxI-83" value="*" style="edgeLabel;html=1;align=center;verticalAlign=middle;resizable=0;points=[];" parent="cN6UIeegfLtIzl7-wpxI-81" vertex="1" connectable="0">
          <mxGeometry x="-0.7235" y="1" relative="1" as="geometry">
            <mxPoint y="-9" as="offset" />
          </mxGeometry>
        </mxCell>
        <mxCell id="cN6UIeegfLtIzl7-wpxI-87" value="" style="endArrow=diamondThin;endFill=1;endSize=24;html=1;rounded=0;" parent="WIyWlLk6GJQsqaUBKTNV-1" source="cN6UIeegfLtIzl7-wpxI-35" edge="1">
          <mxGeometry width="160" relative="1" as="geometry">
            <mxPoint x="680" y="750" as="sourcePoint" />
            <mxPoint x="300" y="760" as="targetPoint" />
            <Array as="points">
              <mxPoint x="680" y="840" />
              <mxPoint x="300" y="840" />
              <mxPoint x="300" y="760" />
              <mxPoint x="300" y="730" />
            </Array>
          </mxGeometry>
        </mxCell>
        <mxCell id="cN6UIeegfLtIzl7-wpxI-102" value="1" style="edgeLabel;html=1;align=center;verticalAlign=middle;resizable=0;points=[];" parent="cN6UIeegfLtIzl7-wpxI-87" vertex="1" connectable="0">
          <mxGeometry x="0.6803" y="-1" relative="1" as="geometry">
            <mxPoint x="-1" y="-9" as="offset" />
          </mxGeometry>
        </mxCell>
        <mxCell id="cN6UIeegfLtIzl7-wpxI-103" value="1" style="edgeLabel;html=1;align=center;verticalAlign=middle;resizable=0;points=[];" parent="cN6UIeegfLtIzl7-wpxI-87" vertex="1" connectable="0">
          <mxGeometry x="-0.9031" y="1" relative="1" as="geometry">
            <mxPoint x="-11" y="6" as="offset" />
          </mxGeometry>
        </mxCell>
        <mxCell id="9L3WXcabAkDaQ7lcvR42-0" style="edgeStyle=orthogonalEdgeStyle;rounded=0;orthogonalLoop=1;jettySize=auto;html=1;exitX=0;exitY=0.5;exitDx=0;exitDy=0;entryX=0.997;entryY=0.018;entryDx=0;entryDy=0;endArrow=none;endFill=0;sketch=0;jumpStyle=arc;entryPerimeter=0;" parent="WIyWlLk6GJQsqaUBKTNV-1" source="cN6UIeegfLtIzl7-wpxI-40" target="cN6UIeegfLtIzl7-wpxI-16" edge="1">
          <mxGeometry relative="1" as="geometry">
            <Array as="points">
              <mxPoint x="600" y="400" />
              <mxPoint x="250" y="400" />
              <mxPoint x="250" y="486" />
            </Array>
          </mxGeometry>
        </mxCell>
        <mxCell id="9L3WXcabAkDaQ7lcvR42-1" value="1" style="edgeLabel;html=1;align=center;verticalAlign=middle;resizable=0;points=[];" parent="9L3WXcabAkDaQ7lcvR42-0" vertex="1" connectable="0">
          <mxGeometry x="0.9443" relative="1" as="geometry">
            <mxPoint as="offset" />
          </mxGeometry>
        </mxCell>
        <mxCell id="9L3WXcabAkDaQ7lcvR42-2" value="1" style="edgeLabel;html=1;align=center;verticalAlign=middle;resizable=0;points=[];" parent="9L3WXcabAkDaQ7lcvR42-0" vertex="1" connectable="0">
          <mxGeometry x="-0.9441" y="-1" relative="1" as="geometry">
            <mxPoint as="offset" />
          </mxGeometry>
        </mxCell>
      </root>
    </mxGraphModel>
  </diagram>
</mxfile>
